<?xml version="1.0" encoding="utf-8"?>
<!-- Generator: Adobe Illustrator 23.0.1, SVG Export Plug-In . SVG Version: 6.00 Build 0)  -->
<svg version="1.1" id="Layer_1" xmlns="http://www.w3.org/2000/svg" xmlns:xlink="http://www.w3.org/1999/xlink" x="0px" y="0px"
	 viewBox="0 0 72 72" style="enable-background:new 0 0 72 72;" xml:space="preserve">
<style type="text/css">
	.st0{fill:#FFFFFF;}
</style>
<g>
	<path class="st0" d="M36,3C17.8,3,3,17.8,3,36s14.8,33,33,33c18.2,0,33-14.8,33-33S54.2,3,36,3z M36,67.56
		C18.6,67.56,4.44,53.4,4.44,36S18.6,4.44,36,4.44c17.4,0,31.56,14.16,31.56,31.56S53.4,67.56,36,67.56z"/>
	<path class="st0" d="M46.4,16.09h-6.33c-5.16,0-9.53,4.91-9.53,10.72v2.33h-5.02c-0.4,0-0.72,0.32-0.72,0.72v7.83
		c0,0.4,0.32,0.72,0.72,0.72h5.02v16.96c0,0.4,0.32,0.72,0.72,0.72h7.31c0.4,0,0.72-0.32,0.72-0.72V38.41h7.11
		c0.4,0,0.72-0.32,0.72-0.72v-7.83c0-0.4-0.32-0.72-0.72-0.72h-7.11v-2.4c0-0.91,0.55-1.38,0.78-1.38h6.33
		c0.4,0,0.72-0.32,0.72-0.72v-7.83C47.11,16.41,46.79,16.09,46.4,16.09z M45.68,23.92h-5.61c-1.07,0-2.22,1.13-2.22,2.82v3.12
		c0,0.4,0.32,0.72,0.72,0.72h7.11v6.4h-7.11c-0.4,0-0.72,0.32-0.72,0.72v16.96h-5.87V37.69c0-0.4-0.32-0.72-0.72-0.72h-5.02v-6.4
		h5.02c0.4,0,0.72-0.32,0.72-0.72v-3.05c0-5.03,3.7-9.28,8.09-9.28h5.61V23.92z"/>
</g>
</svg>
