<?xml version="1.0" encoding="utf-8"?>
<!-- Generator: Adobe Illustrator 23.0.1, SVG Export Plug-In . SVG Version: 6.00 Build 0)  -->
<svg version="1.1" id="Layer_1" xmlns="http://www.w3.org/2000/svg" xmlns:xlink="http://www.w3.org/1999/xlink" x="0px" y="0px"
	 viewBox="0 0 72 72" style="enable-background:new 0 0 72 72;" xml:space="preserve">
<style type="text/css">
	.st0{fill:none;}
	.st1{fill:none;stroke:#FFFFFF;stroke-width:2;stroke-miterlimit:10;}
</style>
<rect x="2" y="2" class="st0" width="68" height="68"/>
<path class="st1" d="M43.1,49.94c0,0,5.51-3.15,6.95-3.91c1.44-0.76,2.93-0.95,3.83-0.4c1.37,0.84,12.87,8.49,13.84,9.17
	c0.97,0.68,1.43,2.62,0.1,4.52c-1.33,1.9-7.44,9.41-10.04,9.33c-2.6-0.08-13.39-0.32-33.75-20.68C3.68,27.6,3.44,16.81,3.36,14.21
	c-0.08-2.59,7.42-8.71,9.32-10.04c1.9-1.33,3.84-0.83,4.52,0.11c0.77,1.06,8.33,12.53,9.16,13.84c0.57,0.9,0.36,2.39-0.4,3.83
	c-0.76,1.44-3.91,6.95-3.91,6.95s2.22,3.79,9.74,11.3C39.31,47.72,43.1,49.94,43.1,49.94z"/>
</svg>
